# xmcd
#
# Track frame offsets: 
#        150
#        19503
#        34760
#        53428
#        73518
#        92644
#        106378
#        125653
#        141729
#        157744
#
# Disc length: 2405 seconds
#
# Revision: 0
# Processed by: cddbd v1.5.2PL0 Copyright (c) Steve Scherf et al.
# Submitted via: ExactAudioCopy v0.99pb5
#
DISCID=7e09630a
DTITLE=Stripmall Ballads - Since Jimmy Died
DYEAR=2008
DGENRE=Folklore
TTITLE0=So Romantic
TTITLE1=Estranged Husbands and Their Ex-Wives
TTITLE2=Make Myself At Home
TTITLE3=Wichita Blues
TTITLE4=Made of Stone
TTITLE5=PTSD
TTITLE6=Point of View
TTITLE7=Freeloader
TTITLE8=She Lies in the Ground
TTITLE9=Make the Best Turn Bad
EXTD=
EXTT0=
EXTT1=
EXTT2=
EXTT3=
EXTT4=
EXTT5=
EXTT6=
EXTT7=
EXTT8=
EXTT9=
PLAYORDER=
